<?xml version="1.0" encoding="utf-8"?>
<svg width="800px" height="800px" viewBox="0 0 24 24" fill="none" xmlns="http://www.w3.org/2000/svg">
<path d="M12 15C8.8299 15 6.01077 16.5306 4.52228 18.906C4.17483 19.4317 4 20.0343 4 20.6503C4 21.9873 5.01173 23 6.33686 23H17.6631C18.9883 23 20 21.9873 20 20.6503C20 20.0343 19.8252 19.4317 19.4777 18.906C17.9892 16.5306 15.1701 15 12 15Z" fill="#ffffff"/>
<path d="M12 11C14.4853 11 16.5 8.98528 16.5 6.5C16.5 4.01472 14.4853 2 12 2C9.51472 2 7.5 4.01472 7.5 6.5C7.5 8.98528 9.51472 11 12 11Z" fill="#ffffff"/>
<path d="M20 6L22 8L24 6" stroke="#ffffff" stroke-width="1.5" stroke-linecap="round" stroke-linejoin="round"/>
</svg>